# xmcd CD database file
#
# Track frame offsets:
#	150
#	21550
#	35649
#	56787
#	72147
#	90984
#	110952
#	125544
#	137775
#	152053
#	177294
#
# Disc length: 2740 seconds
#
# Revision: 0
# Processed by: cddbd v1.5.2PL0 Copyright (c) Steve Scherf et al.
# Submitted via: CDex 2.02
#
DISCID=9f0ab20b
DTITLE=Trent Severn - Portage
DYEAR=2017
DGENRE=Country
TTITLE0=Bryan Adams
TTITLE1=Eh Canada
TTITLE2=Sweethearts
TTITLE3=Newfoundman
TTITLE4=No Anchor
TTITLE5=Wake Up Willie
TTITLE6=Got This Round
TTITLE7=You are Enough
TTITLE8=Winnipeg White Out
TTITLE9=The Jack Pine
TTITLE10=Save Me
EXTD=YEAR: 2017
EXTT0=
EXTT1=
EXTT2=
EXTT3=
EXTT4=
EXTT5=
EXTT6=
EXTT7=
EXTT8=
EXTT9=
EXTT10=
PLAYORDER=
